<?xml version="1.0" encoding="utf-8"?>
<!-- Generator: Adobe Illustrator 23.0.3, SVG Export Plug-In . SVG Version: 6.00 Build 0)  -->
<svg version="1.1" 
	id="Layer_1" 
	xmlns="http://www.w3.org/2000/svg" 
	xmlns:xlink="http://www.w3.org/1999/xlink" 
	x="0px" 
	y="0px" 
	viewBox="0 0 154.38 195.33" 
	fill="currentColor" 
	enable-background="new 0 0 154.38 195.33" 
	xml:space="preserve">
	<g>
		<g id="Layer_1-2">
			<path stroke="#231F20" 
				stroke-miterlimit="10" 
				d="M78,0.59L77.19,0.5L0.5,8.54v140.57l76.69,45.63l76.69-45.63V8.54L78,0.59z
			 M143.85,143.41l-66.66,39.66l-66.66-39.66V85.79l66.38,39.51l0.11,7.16l-45.54-27.1l-0.06,7l45.71,27.47l0.11,7.35L31.54,120
			l-0.06,7l45.71,27.47l46.15-27.61v-7l0,0V97.1l20.56-12.28L143.85,143.41z M143.85,77.35l-18.29,10.74l-8.42,5L77,69.17l-0.06,7
			l34.31,20.41l-0.3,0.18l-0.74,0.43l-4.88,2.81L77,83.16l-0.06,7l22.36,13.3l-5.3,3.48l-0.12,0.07L77,97.06l-0.06,7L88,110.54
			l-11.29,6.78l-66-39.26l66.11-39.75l0,0L143.85,77.35z M143.85,70.35l-67-39.51l0,0L10.53,70.31V17.58l66.66-7l66.66,7V70.35z"/>
		</g>
	</g>
</svg>
