<svg xmlns="http://www.w3.org/2000/svg" xmlns:xlink="http://www.w3.org/1999/xlink"><symbol viewBox="0 0 134 56" fill="currentColor" id="cat-pro" xmlns="http://www.w3.org/2000/svg"><path d="M123.1 5.8c1.2-1.9 2.7-3.4 4.5-4.6 1-.7 1.6-.7 2.2.6.8 1.9 1.5 3.9.9 6-.2.8-.1 1.4.4 2.1.6.8 1.1 1.6 1.6 2.3 1.3 1.9 1.8 3.9.9 6.2-.4 1-.4 2-.2 3.1.2 1 .2 2 0 3-.3 1.6-1.1 2.7-2.7 3.2-1.3.3-2.4.9-3.2 2-.2.3-.5.5-.9.5-1.2.2-4.2-2.5-4.2-3.7v-.6c.1-3.6-.1-3.9-3.4-5.4-.7-.3-1.3-.6-1.8-1.2-.6-.8-1.4-.7-2.3-.4-.8.4-1.4.9-1.3 1.9.3 2.4.4 4.8.3 7.3 0 .3.1.6.2.8 3.1 4.5 4.3 9.8 5.8 14.9 1.2 3.9 3.4 6 7.4 6.3.6 0 1.3.2 1.9.3 1.8.3 2.9 1.5 3.4 3.2.7 2.1.3 2.6-1.8 2.6h-6.5c-.9 0-1.6-.2-2.3-.8-1-1-2.2-1.4-3.4-2-1.3-.6-2.6-1.3-3.4-2.6-1.1-1.7-2.6-3.1-4-4.5-2.8-2.9-5.8-5.7-8.4-8.7-1.9-2.2-3.2-4.6-3.2-7.6 0-.9-.2-1.3-1.2-.9-.3.2-.7.3-1 .3-2.8 0-4.2 1.7-5.2 4.2-.9 2.1-2.1 4.1-3.2 6.2-.5 1.1-1 2.6-1 4.2 0 2.4.6 3.2 2.8 4 1.4.5 2.7 1 3.4 2.4.8 1.6.6 2-1.1 2.1h-6.8c-.9 0-1.5-.3-1.9-1.1l-1.8-3c-1-1.7-1.4-3.4-.7-5.4.6-1.7.3-3.6.1-5.3-.4-2.6 0-4.9 1.7-7 .6-.7.6-1-.4-1.2-4.1-.8-8-2.3-11.8-4.1 0 0-.1 0-.1-.1-3.2-1.2-3.8-1-4.7 2.3-.8 2.8-1.6 5.6-2.2 8.5-.7 3.2.1 6.2 1.1 9.2.4 1.2 1.6 1.1 2.5 1.4 2 .6 3.7 1.4 4.5 3.5.7 1.6.6 1.8-1.1 1.8s-3.4-.1-5.2 0c-1.6.1-2.8-.5-4.2-1.4-4.8-3.2-6.2-8.1-6.6-13.4-.2-3.3-2-5.9-4.1-8.4-.4-.5-.8-.7-1.4-.3-2.1 1.3-4.5 2.1-6.7 3-4.8 1.8-9 4.6-12.2 8.8-1.2 1.5-1.9 3.2-2.2 5.1-.3 1.8.2 2.6 2 3.1 1.9.6 2.7 1.5 2.9 3.4.1.8-.2 1.2-1 1.2h-8.1c-.6 0-1-.4-1.3-.8-1.3-1.6-1.9-3.5-1.9-5.5-.1-3.5.3-6.9.9-10.3.4-2.1 1.4-3.8 3.4-4.8 5.9-2.8 9-8.1 11.8-13.6.6-1.1.1-1.3-.9-1.2-2.9.3-5.4 1.6-7.7 3.2-3 2.1-5.7 4.6-8.3 7.1-2.9 2.7-6.2 4.6-10.3 4.9C3.1 32.5-.3 28.4 0 21.8c.1-2.3.9-4.4 2.4-6.1 1.2-1.3 2.6-2 4.5-1.5 1.5.4 1.9 1.2 1.3 2.7-.3.6-.7 1.1-1 1.7-.4.6-.8 1.3-1 2-1.1 3 .4 5.1 3.5 5.4 3.3.3 6-1.1 8.5-3.1 3-2.4 5.7-5.2 8-8.3 3.7-4.8 8.5-7.3 14.4-8.1 2.3-.3 4.3-1.3 6.5-1.9 4.1-1.2 8.3-1.9 12.7-1.8 2 .1 3.9-.3 5.8-1.1 4.9-2 10-2 15.1-1 4 .8 8 1.8 11.9 2.8 2.2.5 4.7.3 7-.2 4.4-1 8.9-1.9 13.4-2 3-.1 5.9.4 8.6 1.7 2 .9 2 .9 1.5 2.8z"/></symbol><symbol viewBox="0 0 70 97" fill="currentColor" id="cat-slim" xmlns="http://www.w3.org/2000/svg"><path d="M54.84 0h-.38c-.68.35-1.09.94-1.44 1.59-.59 1.09-1 2.25-1.32 3.44-.21.81-.65 1.2-1.48 1.34-2.34.4-4.04 1.73-5.23 3.74-.74 1.26-1.32 2.59-1.84 3.94-1.43 3.68-2.52 7.48-3.85 11.2-.64 1.77-.66 1.75-2.57 1.77-2.27.02-2.11-.35-2.14 2.15-.01.79.24 1.19 1.08 1.15.26-.01.65-.13.75.22.08.29-.24.49-.43.69-1.19 1.26-2.69 1.99-4.34 2.43-1.9.51-3.83.91-5.69 1.53-4.74 1.59-9.14 3.81-12.55 7.57-2.09 2.3-3.52 5.02-4.74 7.84-3.71 8.6-5.45 17.71-6.84 26.9C1.18 81.81.72 86.13.37 90.47.2 92.65-.03 94.82 0 97h33.32c.12-.46-.07-.87-.23-1.28-.68-1.75-2.07-2.67-3.83-3.07-.69-.16-.78-.37-.35-.91.73-.93 1.21-2 1.59-3.11 1.63-4.81 2.26-9.82 3.05-14.8.6-3.8 1.5-7.47 3.48-10.83 1.46-2.48 3.3-4.63 5.59-6.37.83-.63.86-.63 1 .44.1.72.12 1.44.16 2.17.29 4.73.26 9.45-.17 14.17-.34 3.68-.47 7.35-.15 11.04.37 4.25 1.15 8.43 2.23 12.55h13.33c-.32-2.19-2.1-4.03-4.24-4.44-1.28-.25-2.53-.08-3.77.2-.6.14-.85.03-.9-.65-.4-5.32-.13-10.6.96-15.82 1.26-6.03 2.44-12.06 3.07-18.18.26-2.54 1.03-4.83 2.27-7.03 1.19-2.12 2.23-4.32 3.41-6.46.93-1.69 1.11-3.4.41-5.19-.27-.71-.53-1.42-.86-2.1-.96-1.96-1.97-3.89-2.91-5.85-.49-1.02-.39-1.12.71-1.15 1.63-.03 1.63-.03 1.66-1.64 0-.22-.01-.44 0-.66.01-.69-.26-1.07-1.01-1.01-.5.04-1.02 0-1.52.01-.69.01-.89-.29-.72-.95.58-2.28 2.78-4.15 5.14-4.44 2.24-.27 4.43.04 6.61.43.65.12 1.01-.03 1.25-.64.4-1 .85-1.97 1.29-2.95.18-.41.2-.77-.09-1.14-3.18-4.11-6.64-7.9-11.37-10.31-.5-.25-.77-.57-.89-1.13-.3-1.42-.65-2.83-1.27-4.16-.33-.7-.7-1.35-1.41-1.74z"/></symbol><symbol viewBox="0 0 21.1 15.51" fill="currentColor" id="checkmark" xmlns="http://www.w3.org/2000/svg"><path d="M20.07 0L7.73 13.3l-6.7-7.22L0 7.19l7.63 8.21.1.11L21 1.22l.1-.12z"/></symbol><symbol viewBox="0 0 18 18" fill="currentColor" id="cross" xmlns="http://www.w3.org/2000/svg"><path d="M18 1.3L16.7 0 9 7.7 1.3 0 0 1.3 7.7 9 0 16.7 1.3 18 9 10.3l7.7 7.7 1.3-1.3L10.3 9z"/></symbol><symbol viewBox="0 0 17 13" fill="currentColor" id="email" xmlns="http://www.w3.org/2000/svg"><path d="M15.6 11.6H1.4V5.8H0V13h17V5.8h-1.4v5.8zM0 0v2.3l8.5 7.1L17 2.3V0H0zm15.6 1.6L8.5 7.5 1.4 1.6v-.2h14.2v.2z"/></symbol><symbol viewBox="0 0 13.52 27.75" fill="currentColor" id="fb" xmlns="http://www.w3.org/2000/svg"><path d="M9.53 27.75H2.71v-12.9H0V8.47h2.63c-.2-2.89.3-5 1.52-6.44C5.19.8 6.73.12 8.74 0h4.78v6.15H9.76c-.16.32-.25 1.09-.25 2.32h3.98v6.38H9.53v12.9zm-5.31-1.5h3.82v-12.9H12V9.97H8.03l-.01-.73c-.04-2.04 0-3.78 1.01-4.46l.19-.13h2.8V1.5H8.78c-1.56.09-2.71.58-3.49 1.5-1.04 1.23-1.41 3.3-1.1 6.14l.09.83H1.5v3.38h2.72v12.9z"/></symbol><symbol viewBox="0 0 55.48 59.95" fill="currentColor" id="gift" xmlns="http://www.w3.org/2000/svg"><path d="M52.35 12.17h-6.96c.46-.67.83-1.41 1.07-2.21.59-1.98.37-4.08-.61-5.9a7.688 7.688 0 0 0-4.6-3.74 7.727 7.727 0 0 0-5.9.61c-3.61 1.95-6.17 6.11-7.6 9.01-1.43-2.9-3.99-7.06-7.6-9.01C16.39-1.1 11.68.3 9.65 4.06c-1.45 2.66-1.16 5.78.45 8.11H3.13C1.41 12.17 0 13.58 0 15.3v9.38c0 1.73 1.41 3.13 3.13 3.13h.83v26.11c0 3.33 2.71 6.03 6.03 6.03h35.49c3.32 0 6.03-2.7 6.03-6.03v-26.1h.83c1.73 0 3.13-1.4 3.13-3.13V15.3c.01-1.72-1.4-3.13-3.12-3.13zM36.48 3.05a5.3 5.3 0 0 1 4.07-.42 5.31 5.31 0 0 1 3.18 2.58 5.3 5.3 0 0 1 .42 4.07c-.36 1.2-1.13 2.2-2.16 2.89H29.35c1.13-2.53 3.61-7.21 7.13-9.12zM11.75 5.21c1.4-2.59 4.65-3.56 7.25-2.16 3.52 1.91 6 6.6 7.13 9.12H13.49c-2.26-1.52-3.06-4.52-1.74-6.96zm14.79 22.61v13.67H6.36V27.82h20.18zM6.36 53.92V43.89h20.18v13.67H9.99c-2-.01-3.63-1.63-3.63-3.64zm39.12 3.63H28.94V43.89h20.17v10.04c0 2-1.62 3.62-3.63 3.62zm3.63-16.06H28.94V27.82h20.17v13.67zm3.97-16.81c0 .4-.33.73-.73.73H3.13c-.4 0-.73-.33-.73-.73V15.3c0-.4.34-.73.73-.73h49.21c.4 0 .73.33.73.73v9.38z"/></symbol><symbol viewBox="0 0 154.38 195.33" fill="currentColor" id="htmlacademy" xmlns="http://www.w3.org/2000/svg"><path stroke="#231F20" stroke-miterlimit="10" d="M78 .59L77.19.5.5 8.54v140.57l76.69 45.63 76.69-45.63V8.54L78 .59zm65.85 142.82l-66.66 39.66-66.66-39.66V85.79l66.38 39.51.11 7.16-45.54-27.1-.06 7 45.71 27.47.11 7.35L31.54 120l-.06 7 45.71 27.47 46.15-27.61v-7h0V97.1l20.56-12.28-.05 58.59zm0-66.06l-18.29 10.74-8.42 5L77 69.17l-.06 7 34.31 20.41-.3.18-.74.43-4.88 2.81L77 83.16l-.06 7 22.36 13.3-5.3 3.48-.12.07L77 97.06l-.06 7L88 110.54l-11.29 6.78-66-39.26 66.11-39.75h0l67.03 39.04zm0-7l-67-39.51h0L10.53 70.31V17.58l66.66-7 66.66 7v52.77z"/></symbol><symbol viewBox="0 0 23 23" fill="currentColor" id="insta" xmlns="http://www.w3.org/2000/svg"><path d="M17 1.5c2.48 0 4.5 2.02 4.5 4.5v11c0 2.48-2.02 4.5-4.5 4.5H6.01c-2.48 0-4.5-2.02-4.5-4.5V6c0-2.48 2.02-4.5 4.5-4.5H17M17 0H6.01c-3.3 0-6 2.7-6 6v11c0 3.3 2.7 6 6 6h11c3.3 0 5.99-2.7 5.99-6V6c0-3.3-2.7-6-6-6z"/><path d="M11.51 7.08c2.44 0 4.43 1.99 4.43 4.43 0 2.44-1.99 4.43-4.43 4.43-2.44 0-4.43-1.99-4.43-4.43 0-2.45 1.98-4.43 4.43-4.43m0-1.5c-3.27 0-5.93 2.65-5.93 5.93s2.65 5.93 5.93 5.93 5.93-2.65 5.93-5.93-2.66-5.93-5.93-5.93z"/><circle cx="17.65" cy="5.38" r="1.34"/></symbol><symbol viewBox="0 0 24 18" fill="currentColor" id="menu" xmlns="http://www.w3.org/2000/svg"><path d="M0 16h24v2H0zM0 8h24v2H0zM0 0h24v2H0z"/></symbol><symbol viewBox="0 0 20 20" fill="currentColor" id="phone" xmlns="http://www.w3.org/2000/svg"><path d="M17.9 9.4H9.4v1.2h8.5l-2.1 2.1.9.9 3.1-3.1c.2-.2.2-.6 0-.9l-3.1-3.1-.9.9 2.1 2zM8.1 19.4v-6.2c0-.3-.3-.6-.6-.6H3.1c0 .7.6 1.2 1.2 1.2h2.5v5H3.1c-1 .1-1.8-.7-1.9-1.7v-14c0-1 .8-1.8 1.7-1.8H6.8v5H4.4c-.7 0-1.2.6-1.2 1.2h4.4c.3 0 .6-.3.6-.6V.6C8.1.3 7.8 0 7.5 0H3.1C1.5-.1.1 1.2 0 2.9V16.8c-.1 1.7 1.2 3.1 2.9 3.1H7.5c.3.1.6-.2.6-.5z"/></symbol><symbol viewBox="0 0 62 62" id="plus" xmlns="http://www.w3.org/2000/svg"><g data-name="Layer 2"><g data-name="Layer 1" fill="#fff" stroke="#000" stroke-miterlimit="10" stroke-width="2"><path d="M31 0v62M62 31H0"/></g></g></symbol><symbol viewBox="0 0 24.2 11" fill="currentColor" id="right-arrow" xmlns="http://www.w3.org/2000/svg"><path fill="#3F4242" d="M17.6 0l6.6 5.5-6.6 5.5V6.6H0V4.4h17.6z"/></symbol><symbol viewBox="0 0 30 15.76" fill="currentColor" id="vk" xmlns="http://www.w3.org/2000/svg"><path d="M23.94 15.76c-.39 0-1.17-.08-2.08-.63-.64-.39-1.22-.97-1.78-1.53-.44-.44-1.17-1.18-1.45-1.18-.27.08-.48.92-.48 1.57 0 .11 0 .77-.47 1.21-.42.4-1.09.49-1.22.5l-1.93.01c-.97 0-4.36-.22-7.43-3.02C3.44 9.33.28 2.89.15 2.61c-.2-.46-.25-1.06.15-1.48C.69.72 1.38.66 1.66.65L5.74.63l.11.01c.09.01.57.1.96.35.39.24.59.65.63.73.01.02.65 1.43 1.48 2.68 1.31 1.99 1.9 2.45 2.1 2.56.19-.42.28-1.7.19-2.87 0-.49-.1-1.1-.25-1.28-.11-.13-.43-.25-.78-.29l-.73-.69c-.1-.66.64-1.23 1.15-1.45.74-.31 1.79-.38 3.15-.38l.71.01c1.24.01 1.62.08 2.15.19 1.7.36 1.64 1.73 1.57 3.31-.02.46-.05 1-.05 1.62 0 .15 0 .31-.01.48-.01.38-.03 1.04.09 1.3.22-.15.85-.67 2.07-2.48.78-1.16 1.4-2.54 1.52-2.8.18-.43.61-.94 1.61-.95l4.27-.02c.01 0 .17-.02.38-.02.98 0 1.6.29 1.83.85.27.65.17 1.66-2.35 4.61-.37.43-.7.8-.98 1.13-.6.68-1.22 1.38-1.24 1.59.05.17.66.67 1.25 1.15 1.53 1.25 2.53 2.26 3.03 3.07.52.76.43 1.33.26 1.68-.42.86-1.64.97-1.88.99l-3.79.05c-.04-.01-.13 0-.25 0zm-5.31-4.84c.9 0 1.68.79 2.51 1.62.5.5 1.01 1.02 1.5 1.31.73.44 1.32.42 1.4.41l.1-.01 3.81-.05c.17-.01.41-.07.54-.14-.02-.04-.05-.09-.1-.17-.45-.72-1.39-1.66-2.69-2.72-1.18-.96-1.8-1.47-1.86-2.24-.07-.81.49-1.44 1.61-2.7.28-.32.6-.68.97-1.11 1.56-1.82 1.96-2.64 2.06-2.96-.17-.03-.65-.02-.68-.02l-4.36.03c-.19 0-.25.03-.25.04-.19.42-.83 1.82-1.66 3.05-1.9 2.82-2.78 3.2-3.41 3.2-.2 0-.4-.05-.57-.15-1-.57-.96-1.83-.93-2.76 0-.15.01-.3.01-.43 0-.65.02-1.21.05-1.69.08-1.68.02-1.69-.38-1.78-.41-.09-.7-.15-1.86-.16l-.69.01c-.62 0-1.34.01-1.91.1.09.07.18.16.26.25.59.7.6 1.95.6 2.19.13 1.65.06 3.8-1.02 4.31-.19.09-.39.14-.6.14-.93 0-1.85-.89-3.43-3.27-.88-1.35-1.54-2.82-1.57-2.88a.7.7 0 0 0-.08-.1c-.08-.05-.23-.1-.32-.12l-4 .02c-.02 0-.05 0-.07.01.59 1.19 3.43 6.59 6.52 9.42 2.74 2.5 5.83 2.63 6.42 2.63h1.85c.05-.01.22-.06.27-.1-.02.02-.01-.05-.01-.1 0-.26.01-2.59 1.58-3.03.12-.03.26-.05.39-.05z"/></symbol></svg>